<?xml version="1.0" encoding="UTF-8"?>
<svg version="1.1" xmlns="http://www.w3.org/2000/svg" width="512" height="512">
<path d="M0 0 C0.99868909 -0.00297112 1.99737819 -0.00594224 3.02633059 -0.0090034 C6.35908455 -0.01764635 9.69180239 -0.01919493 13.02456665 -0.02069092 C15.42015662 -0.02532233 17.81574585 -0.03034742 20.21133423 -0.03573608 C26.71186048 -0.04883371 33.21237985 -0.05533771 39.71291685 -0.05974674 C43.78023756 -0.06251761 47.84755591 -0.06675656 51.91487503 -0.07125092 C63.19913521 -0.08343966 74.48339352 -0.09373856 85.76766014 -0.09712601 C86.48888342 -0.09734557 87.2101067 -0.09756514 87.95318524 -0.09779136 C88.67603937 -0.09800964 89.39889351 -0.09822791 90.14365232 -0.09845281 C91.60818887 -0.09889626 93.07272542 -0.09934282 94.53726196 -0.09979248 C95.2637076 -0.10001391 95.99015323 -0.10023534 96.73861237 -0.10046348 C108.48858398 -0.10440477 120.23849332 -0.12184006 131.98844092 -0.145152 C144.08217627 -0.16895013 156.17588049 -0.18133175 168.26963961 -0.18249393 C175.04751456 -0.18340615 181.82530843 -0.18904286 188.60316086 -0.20731354 C194.98736375 -0.22388814 201.37141365 -0.2259044 207.75563049 -0.21717453 C210.08628883 -0.21640908 212.41695571 -0.22068117 214.74759293 -0.23063278 C258.07962913 -0.40465983 296.27158717 14.14096113 327.37026978 44.66778564 C335.82133285 53.25263113 342.72223089 62.77794547 348.81997681 73.14044189 C349.16657349 73.72519287 349.51317017 74.30994385 349.87026978 74.91241455 C362.01010239 95.68527045 368.98307225 119.22610484 368.9604187 143.32046509 C368.96487538 144.81849873 368.96487538 144.81849873 368.9694221 146.34679568 C368.97806505 149.67954963 368.97961363 153.01226748 368.98110962 156.34503174 C368.98574103 158.7406217 368.99076612 161.13621093 368.99615479 163.53179932 C369.00925242 170.03232557 369.01575642 176.53284494 369.02016544 183.03338194 C369.02293631 187.10070264 369.02717527 191.168021 369.03166962 195.23534012 C369.04385836 206.5196003 369.05415726 217.80385861 369.05754471 229.08812523 C369.05776427 229.80934851 369.05798384 230.53057179 369.05821006 231.27365033 C369.05842834 231.99650446 369.05864662 232.7193586 369.05887151 233.46411741 C369.05931496 234.92865396 369.05976152 236.3931905 369.06021118 237.85772705 C369.06043261 238.58417268 369.06065404 239.31061832 369.06088218 240.05907746 C369.06482347 251.80904907 369.08225876 263.55895841 369.1055707 275.308906 C369.12936883 287.40264135 369.14175045 299.49634558 369.14291263 311.5901047 C369.14382485 318.36797965 369.14946156 325.14577352 369.16773224 331.92362595 C369.18430684 338.30782883 369.1863231 344.69187874 369.17759323 351.07609558 C369.17682778 353.40675392 369.18109987 355.7374208 369.19105148 358.06805801 C369.36507853 401.40009422 354.81945758 439.59205226 324.29263306 470.69073486 C315.70778757 479.14179794 306.18247323 486.04269597 295.81997681 492.14044189 C295.23522583 492.48703857 294.65047485 492.83363525 294.04800415 493.19073486 C273.27514825 505.33056748 249.73431386 512.30353734 225.63995361 512.28088379 C224.64126452 512.28385491 223.64257542 512.28682603 222.61362302 512.28988719 C219.28086907 512.29853014 215.94815122 512.30007872 212.61538696 512.30157471 C210.219797 512.30620611 207.82420777 512.31123121 205.42861938 512.31661987 C198.92809313 512.3297175 192.42757376 512.3362215 185.92703676 512.34063053 C181.85971606 512.3434014 177.7923977 512.34764035 173.72507858 512.3521347 C162.4408184 512.36432345 151.15656009 512.37462235 139.87229347 512.3780098 C138.79045855 512.37833915 138.79045855 512.37833915 137.68676838 512.37867515 C136.96391424 512.37889343 136.2410601 512.3791117 135.49630129 512.3793366 C134.03176474 512.37978005 132.5672282 512.38022661 131.10269165 512.38067627 C130.37624602 512.3808977 129.64980038 512.38111913 128.90134124 512.38134727 C117.15136963 512.38528855 105.40146029 512.40272385 93.6515127 512.42603579 C81.55777735 512.44983392 69.46407312 512.46221554 57.370314 512.46337771 C50.59243905 512.46428994 43.81464518 512.46992664 37.03679276 512.48819733 C30.65258987 512.50477193 24.26853996 512.50678819 17.88432312 512.49805832 C15.55366478 512.49729287 13.2229979 512.50156496 10.89236069 512.51151657 C-32.43967552 512.68554362 -70.63163355 498.13992266 -101.73031616 467.61309814 C-110.18137924 459.02825266 -117.08227727 449.50293832 -123.18002319 439.14044189 C-123.52661987 438.55569092 -123.87321655 437.97093994 -124.23031616 437.36846924 C-139.15366328 411.83265263 -143.96888288 384.22270078 -143.82699585 354.93341064 C-143.83379502 352.5269607 -143.84271086 350.12051597 -143.85354614 347.71408081 C-143.87607264 341.2594098 -143.86761464 334.80514453 -143.85165071 328.35046768 C-143.84267249 324.30057544 -143.84447118 320.25073325 -143.84910202 316.20083618 C-143.84986819 315.52315191 -143.85063435 314.84546765 -143.85142373 314.14724749 C-143.85302277 312.7694531 -143.85464384 311.39165874 -143.85628669 310.0138644 C-143.87045789 297.17115175 -143.8542884 284.32861914 -143.82728486 271.48593605 C-143.80495393 260.5272569 -143.80883651 249.56884283 -143.83187866 238.61016846 C-143.85879081 225.80542442 -143.86908541 213.00083715 -143.85381734 200.19606876 C-143.85222502 198.82406174 -143.85065316 197.45205468 -143.84910202 196.08004761 C-143.84833064 195.40544076 -143.84755927 194.73083391 -143.84676451 194.03578442 C-143.84249339 189.33985864 -143.8498857 184.64406472 -143.86149979 179.94815063 C-143.87611257 173.59803788 -143.86562045 167.2484178 -143.8370285 160.89835739 C-143.83050645 158.58998806 -143.83215941 156.2815761 -143.84334183 153.97322464 C-144.02984188 111.50758545 -129.37532516 73.193066 -99.75082397 42.66778564 C-73.70742027 16.77431011 -36.88675524 -0.03468097 0 0 Z " fill="#1674E0" transform="translate(143.18002319335938,-0.14044189453125)"/>
<path d="M0 0 C5.10585179 4.272756 9.88039343 8.74632456 14.56835938 13.47070312 C15.2896553 14.19345932 16.01095123 14.91621552 16.75410461 15.66087341 C18.30913927 17.21969319 19.86301832 18.77966647 21.41584778 20.34068298 C23.87749799 22.81517404 26.34232604 25.28646016 28.8079834 27.75695801 C34.92897382 33.89127156 41.04450065 40.03102274 47.16021729 46.17059326 C52.33611314 51.36625763 57.51407662 56.55984478 62.69477844 61.75071716 C65.11576513 64.17815721 67.53370509 66.60860391 69.95153809 69.03918457 C71.44475639 70.53603753 72.93811647 72.03274908 74.43164062 73.52929688 C75.09678177 74.19960434 75.76192291 74.8699118 76.44721985 75.56053162 C80.00776392 79.12147374 83.66722058 82.45780202 87.51961327 85.69927788 C89.24893068 87.21871963 90.65535164 88.85847717 92.06079102 90.67895508 C95.15619549 94.31349295 98.63693931 97.24104023 102.39428711 100.15893555 C156.07677905 141.88264825 156.07677905 141.88264825 160.3386507 169.72821331 C161.60058534 180.20703392 161.5300356 190.66371963 161 201.1875 C160.95435284 202.11561367 160.90870567 203.04372734 160.86167526 203.99996567 C160.20044604 216.4167697 158.88909127 228.71248442 157 241 C156.81795517 242.18653357 156.81795517 242.18653357 156.63223267 243.39703751 C156.25814241 245.80171037 155.8741589 248.20451323 155.484375 250.60668945 C155.31155251 251.68245255 155.31155251 251.68245255 155.13523865 252.77994823 C148.97174467 289.5188174 126.50058268 324.4985754 96.30029297 346.22265625 C92.30286916 348.9887868 88.18865377 351.535213 84 354 C83.41524902 354.34659668 82.83049805 354.69319336 82.22802734 355.05029297 C61.99469704 366.87482226 38.66554951 374.19032876 15.13720703 374.12939453 C13.86743263 374.13202301 13.86743263 374.13202301 12.57200623 374.13470459 C9.80058689 374.13907232 7.02923237 374.13620473 4.2578125 374.1328125 C2.32347603 374.13348662 0.38913965 374.13445755 -1.54519653 374.13571167 C-5.58482679 374.13718143 -9.62443484 374.13505592 -13.6640625 374.13037109 C-18.8494129 374.12465124 -24.0347118 374.12797158 -29.22006035 374.13394356 C-33.20735058 374.13754913 -37.1946285 374.136411 -41.1819191 374.13381577 C-43.09495169 374.13314767 -45.0079854 374.13397083 -46.92101669 374.13629532 C-49.58523295 374.13882423 -52.24936432 374.1349789 -54.91357422 374.12939453 C-56.10420723 374.13243088 -56.10420723 374.13243088 -57.31889343 374.13552856 C-62.77146187 374.11426906 -62.77146187 374.11426906 -65 373 C-65 372.34 -65 371.68 -65 371 C-65.54828838 370.77647354 -66.09657677 370.55294708 -66.66147995 370.32264709 C-69.70488833 368.60132114 -71.9758026 366.30019797 -74.4163208 363.83764648 C-74.95060031 363.30648696 -75.48487981 362.77532743 -76.03534961 362.22807217 C-77.82425357 360.44714514 -79.60592429 358.65915499 -81.38769531 356.87109375 C-82.66864266 355.59285633 -83.95001513 354.3150448 -85.23178101 353.03762817 C-88.7113381 349.56719528 -92.18453137 346.09045788 -95.65635777 342.61229324 C-99.28620534 338.97738806 -102.92092325 335.34735834 -106.55487061 331.71655273 C-112.65476828 325.62029447 -118.75043455 319.51982901 -124.84375 313.41699219 C-131.89735412 306.35249384 -138.9581477 299.29524267 -146.02270055 292.24169445 C-152.08161248 286.19184448 -158.13663564 280.13812316 -164.18839717 274.08112049 C-167.80579223 270.46060097 -171.42454025 266.84146159 -175.04679108 263.22579956 C-178.44937991 259.82896805 -181.84707716 256.42731977 -185.24098587 253.02181625 C-186.49058479 251.7695625 -187.74190789 250.51902667 -188.99502945 249.270298 C-190.69853955 247.57221214 -192.3958335 245.86815349 -194.09161377 244.16235352 C-194.59470857 243.66372016 -195.09780337 243.1650868 -195.61614347 242.65134335 C-199 239.22830058 -199 239.22830058 -199 237 C-132.67 237 -66.34 237 2 237 C2 218.19 2 199.38 2 180 C-33.64 180 -69.28 180 -106 180 C-104.4032949 176.80658981 -102.9466996 174.46313123 -100.796875 171.68359375 C-100.15339111 170.84666992 -99.50990723 170.00974609 -98.84692383 169.14746094 C-98.15493896 168.25317383 -97.4629541 167.35888672 -96.75 166.4375 C-91.36370722 159.42713537 -86.0339186 152.38406143 -80.8125 145.25 C-74.89401002 137.17638054 -68.84744639 129.20975415 -62.74658203 121.2734375 C-53.81716905 109.65047221 -44.95057485 97.98896803 -36.28930664 86.16455078 C-32.58972502 81.12542038 -28.83896681 76.12963062 -25.03540039 71.16845703 C-23.67637788 69.38674706 -22.32918776 67.5959505 -20.99389648 65.79638672 C-17.82807632 61.55079091 -14.66083672 57.56469535 -10.91015625 53.8203125 C1.75535999 40.44171164 0.63266626 25.31830282 0.2734375 7.86328125 C0.19840979 5.24114201 0.10423137 2.62120416 0 0 Z " fill="#06469F" transform="translate(355,138)"/>
<path d="M0 0 C64.35 0 128.7 0 195 0 C195 44.21792619 195 44.21792619 183.4296875 56.55078125 C182.68170898 57.28506348 181.93373047 58.0193457 181.16308594 58.77587891 C177.67017793 62.36734527 174.88139734 66.41488029 172 70.5 C170.85819758 72.06544802 169.71233234 73.62794049 168.5625 75.1875 C167.985 75.97125 167.4075 76.755 166.8125 77.5625 C162.91696757 82.80131948 158.9340059 87.97400357 154.96533203 93.1574707 C150.53576655 98.95380929 146.18184443 104.79953926 141.875 110.6875 C136.78837407 117.63845489 131.56002815 124.46032026 126.24511719 131.23779297 C121.51544625 137.28887336 116.94984882 143.44912757 112.41699219 149.6484375 C107.09098917 156.91742869 101.63530507 164.08412767 96.15283203 171.2355957 C95.50942871 172.07566162 94.86602539 172.91572754 94.203125 173.78125 C93.63239258 174.52439453 93.06166016 175.26753906 92.47363281 176.03320312 C91.2622123 177.65003607 90.12067129 179.31899306 89 181 C124.64 181 160.28 181 197 181 C197 199.81 197 218.62 197 238 C130.34 238 63.68 238 -5 238 C-5 191.55852473 -5 191.55852473 6.421875 179.53125 C7.18177734 178.79777344 7.94167969 178.06429687 8.72460938 177.30859375 C12.6852395 173.29016902 15.90882039 168.72120501 19.25 164.1875 C20.58574678 162.42886326 21.92422498 160.67229729 23.265625 158.91796875 C27.00900861 153.99551431 30.720429 149.04972805 34.42285156 144.09643555 C39.26641371 137.62505215 44.17381077 131.20273288 49.078125 124.77734375 C53.07600754 119.53584507 57.05339972 114.28020422 61 109 C65.63015579 102.8052586 70.30772829 96.64780877 75 90.5 C79.91620222 84.05687083 84.82182457 77.60640035 89.6875 71.125 C90.15607422 70.50173828 90.62464844 69.87847656 91.10742188 69.23632812 C94.13360132 65.19701728 97.06478935 61.10929492 100 57 C67 57 34 57 0 57 C0 38.19 0 19.38 0 0 Z " fill="#FEFEFE" transform="translate(160,137)"/>
<path d="M0 0 C32.34 0 64.68 0 98 0 C96.26274933 4.34312668 95.17609049 6.24789556 92.25 9.625 C88.05442555 14.62612474 84.15700171 19.78751084 80.3125 25.0625 C74.82322843 32.58388665 69.19426733 39.97842501 63.44262695 47.30102539 C62.88921631 48.00606201 62.33580566 48.71109863 61.765625 49.4375 C61.27868164 50.05496094 60.79173828 50.67242187 60.29003906 51.30859375 C59.13171731 52.82730176 58.05948947 54.4107658 57 56 C53.10094736 54.40365184 50.63606671 51.88350223 47.68066406 48.92358398 C47.16314072 48.40795898 46.64561737 47.89233398 46.1124115 47.36108398 C44.40856203 45.66092992 42.71200336 43.95369984 41.015625 42.24609375 C39.83343367 41.06271018 38.6508723 39.87969618 37.46795654 38.69703674 C34.99359196 36.22110962 32.52261975 33.74186269 30.05419922 31.26000977 C26.88255744 28.07133206 23.70432587 24.88932351 20.52377701 21.70953274 C18.08378022 19.26926478 15.64639259 16.82640518 13.20989227 14.38264656 C12.03825 13.20781267 10.86599273 12.0335918 9.69312286 10.85998344 C8.0601288 9.22483366 6.43046303 7.58644176 4.80175781 5.94702148 C3.87228333 5.0137352 2.94280884 4.08044891 1.98516846 3.11888123 C0 1 0 1 0 0 Z " fill="#0C407D" transform="translate(161,195)"/>
</svg>
